PathFileType	4	(x/y/z)	S04_M20_T03.trc
DataRate	CameraRate	NumFrames	NumMarkers	Units	OrigDataRate	OrigDataStartFrame	OrigNumFrames
240	240	4	51	mm	240	354	565
Frame#	Time	Sternum			R.Acromium			L.Acromium			Top.Head			R.ASIS			L.ASIS			R.PSIS			L.PSIS			R.Great.Tro			L.Great.Tro			R.Iliac.Crest			L.Iliac.Crest			V.Sacral			R.Thigh.Upper.Post			R.Thigh.Lower.Ant			R.Thigh.Lower.Post			R.Thigh.Upper.Ant			R.Knee.Lat			R.Knee.Med			R.Shank.Upper.Post			R.Shank.Lower.Ant			R.Shank.Lower.Post			R.Shank.Upper.Ant			R.Ankle.Lat			R.Ankle.Med			R.Heel.Upper			R.Heel.Med			R.Heel.Lat			R.Toe.Lat			R.Toe.Med			R.Toe.Tip			L.Thigh.Upper.Post			L.Thigh.Lower.Ant			L.Thigh.Lower.Post			L.Thigh.Upper.Ant			L.Knee.Lat			L.Knee.Med			L.Shank.Upper.Post			L.Shank.Lower.Ant			L.Shank.Lower.Post			L.Shank.Upper.Ant			L.Ankle.Lat			L.Ankle.Med			L.Heel.Upper			L.Heel.Med			L.Heel.Lat			L.Toe.Lat			L.Toe.Med			L.Toe.Tip			Cervical.Spine			Back			
		X1	Y1	Z1	X2	Y2	Z2	X3	Y3	Z3	X4	Y4	Z4	X5	Y5	Z5	X6	Y6	Z6	X7	Y7	Z7	X8	Y8	Z8	X9	Y9	Z9	X10	Y10	Z10	X11	Y11	Z11	X12	Y12	Z12	X13	Y13	Z13	X14	Y14	Z14	X15	Y15	Z15	X16	Y16	Z16	X17	Y17	Z17	X18	Y18	Z18	X19	Y19	Z19	X20	Y20	Z20	X21	Y21	Z21	X22	Y22	Z22	X23	Y23	Z23	X24	Y24	Z24	X25	Y25	Z25	X26	Y26	Z26	X27	Y27	Z27	X28	Y28	Z28	X29	Y29	Z29	X30	Y30	Z30	X31	Y31	Z31	X32	Y32	Z32	X33	Y33	Z33	X34	Y34	Z34	X35	Y35	Z35	X36	Y36	Z36	X37	Y37	Z37	X38	Y38	Z38	X39	Y39	Z39	X40	Y40	Z40	X41	Y41	Z41	X42	Y42	Z42	X43	Y43	Z43	X44	Y44	Z44	X45	Y45	Z45	X46	Y46	Z46	X47	Y47	Z47	X48	Y48	Z48	X49	Y49	Z49	X50	Y50	Z50	X51	Y51	Z51	

354	1.4708	943.91	1241.5	304.75	805.37	1466	474.55	815.5	1456.3	122.41	832.01	1795.1	287.21	887.66	957.38	452.8	940.45	972.56	202.78	702.62	1000.3	304.83	727.19	1001.4	226.57	776.06	888.24	490.11	846.46	890.22	111.64	798.31	1048.8	475.4	843.19	1052.6	132.69	693.84	959.17	262.47	699.25	648.63	466	749.12	547.48	437.47	673.96	562.59	449.76	788.04	648.91	463.15	669.8	489.88	440.49	661.26	494.34	304.09	509.87	310.21	417.05	544.86	214.27	372.45	482.83	247.82	395.11	567.72	278.61	402.85	451.58	137.59	368.03	475.75	148.19	280.35	379.59	124.82	310.32	380.35	91.752	281.17	375.05	93.632	345.9	536.31	43.749	398.31	572.49	38.012	279.81	637	42.493	328.34	916.15	652.79	125.35	1030.8	601.42	139.2	961.9	577.24	142.03	982.02	674.29	117.25	1037.9	513.51	150.88	1043.1	503.48	280.36	1046.3	314.37	155.64	1149.6	273.98	151.81	1090.3	250.31	162.14	1106.3	337.04	144.38	1218	131.68	169.17	1218.2	146.58	262.21	1173.2	61.468	220.56	1194.3	46.422	255.79	1193.5	39.779	194.59	1345.6	137.9	147.48	1367.1	170.51	259.56	1403.1	211.43	208.96	762.03	1513.6	301.51	685.95	1255.6	273.44
355	1.475	949.83	1240.9	304.27	811.18	1465.4	473.99	821.3	1455.6	121.85	837.68	1794.4	286.55	893.35	956.72	452.57	946.67	972.01	202.63	708.61	999.6	304.16	733.33	1000.7	225.95	781.59	887.7	489.61	852.94	889.73	111.24	804.07	1048.1	474.94	849.37	1051.9	132.33	699.94	958.5	261.78	704.23	648.4	465.77	753.85	547.07	437.47	678.66	562.42	449.59	793.03	648.42	463.06	674.29	489.67	440.39	666.05	494.04	304.03	512.88	311.26	417.03	546.9	215.05	372.57	485.29	249.09	395.12	570.44	279.13	402.86	453.01	139.08	368.17	477.33	149.48	280.51	380.95	127.17	310.47	381.37	94.167	281.24	376.07	95.916	345.93	536.69	43.985	398.35	572.68	38.097	279.83	637.18	42.361	328.29	922.78	652.35	125.22	1037.4	601.11	139.23	968.51	576.88	141.97	988.56	673.94	117.19	1044.4	513.06	150.91	1049.6	503.12	280.26	1051.2	313.82	155.62	1154.2	272.54	152.05	1094.7	249.39	162.23	1111.5	335.97	144.53	1221.3	129.86	169.48	1221.5	144.66	262.55	1176.1	60.167	220.79	1197	44.926	255.98	1196.1	38.355	194.77	1348.7	135.5	147.87	1370.4	167.78	260.01	1406.6	208.59	209.48	767.82	1513	300.94	691.83	1255	272.94
356	1.4792	955.8	1240.3	303.78	817.02	1464.8	473.43	827.13	1455	121.29	843.36	1793.8	285.89	899.12	956.07	452.33	952.95	971.5	202.46	714.66	998.95	303.49	739.53	1000.1	225.33	787.19	887.15	489.11	859.49	889.27	110.84	809.9	1047.5	474.48	855.6	1051.2	131.97	706.1	957.85	261.1	709.29	648.17	465.54	758.7	546.67	437.48	683.46	562.25	449.43	798.1	647.93	462.98	678.9	489.45	440.3	670.95	493.72	303.97	515.98	312.34	417.01	549.03	215.86	372.71	487.83	250.41	395.13	573.24	279.68	402.87	454.51	140.62	368.32	479	150.8	280.68	382.4	129.6	310.63	382.48	96.672	281.31	377.15	98.283	345.96	537.08	44.233	398.39	572.88	38.185	279.85	637.37	42.235	328.25	929.42	651.94	125.09	1044	600.8	139.24	975.11	576.54	141.9	995.11	673.59	117.11	1050.9	512.62	150.93	1056	502.75	280.15	1056.1	313.29	155.56	1158.7	271.08	152.3	1099	248.47	162.3	1116.6	334.89	144.69	1224.4	128	169.81	1224.6	142.68	262.91	1178.6	58.931	221	1199.3	43.464	256.15	1198.4	36.972	194.92	1351.6	132.96	148.31	1373.5	164.85	260.53	1410	205.53	210.1	773.63	1512.3	300.37	697.76	1254.3	272.43
357	1.4833	961.8	1239.8	303.28	822.88	1464.3	472.85	832.97	1454.3	120.7	849.05	1793.3	285.23	904.95	955.44	452.07	959.28	971.03	202.28	720.77	998.32	302.82	745.8	999.5	224.71	792.87	886.61	488.61	866.1	888.85	110.43	815.81	1047	474.03	861.89	1050.5	131.6	712.32	957.23	260.41	714.45	647.93	465.3	763.65	546.26	437.49	688.36	562.06	449.27	803.27	647.44	462.89	683.61	489.23	440.2	675.97	493.39	303.91	519.18	313.45	416.98	551.25	216.7	372.86	490.47	251.77	395.14	576.13	280.24	402.88	456.09	142.21	368.47	480.76	152.16	280.87	383.95	132.11	310.79	383.68	99.27	281.36	378.31	100.74	345.99	537.5	44.494	398.43	573.08	38.275	279.86	637.55	42.116	328.19	936.05	651.56	124.96	1050.6	600.49	139.23	981.71	576.21	141.84	1001.7	673.26	117.02	1057.4	512.19	150.96	1062.5	502.39	280.01	1060.9	312.79	155.48	1163.1	269.6	152.57	1103.1	247.56	162.35	1121.7	333.81	144.86	1227.4	126.12	170.14	1227.4	140.67	263.28	1181	57.79	221.19	1201.4	42.064	256.29	1200.4	35.657	195.05	1354.4	130.28	148.82	1376.4	161.74	261.12	1413.2	202.26	210.81	779.45	1511.7	299.78	703.72	1253.6	271.92
